<svg height="100" viewBox="-8 -5 30 30" width="100" xmlns="http://www.w3.org/2000/svg">
<defs>
    <linearGradient id="Gradient1" x1="0" y1="0" x2="1" y2="1">
        <stop offset="20%" stop-color="#c4918a" />
        <stop offset="80%" stop-color="#6093c4" />
    </linearGradient>
</defs>
<path d="m14 13.1v-1.1h-9.4l.6-1.1 9.2-.9 1.6-6h-12.3l-.7-3h-3v1h2.2l2.1 8.4-1.3 2.6v1.5c0 .8.7 1.5 1.5 1.5s1.5-.7 1.5-1.5-.7-1.5-1.5-1.5h7.5v1.5c0 .8.7 1.5 1.5 1.5s1.5-.7 1.5-1.5c0-.7-.4-1.2-1-1.4zm-10-8.1h10.7l-1.1 4-8.4.9z" fill="url(#Gradient1)"/></svg>