<svg height="100" viewBox="-8 -5 30 30" width="100" xmlns="http://www.w3.org/2000/svg"><g fill="white"><path d="m13 .8c0-.5-.4-.8-.8-.8h-.2c-1.7 0-3 1.9-3 4.7v.9c0 1 .5 1.9 1.4 2.4-.3 1.2-.4 2.5-.4 2.5v4c0 .8.7 1.5 1.5 1.5s1.5-.7 1.5-1.5v-4c0-.4-.1-1.4-.3-2.3.2-.2.3-.4.3-.7v-6.7z"/><path d="m7.2 0h-.2v3.5c0 .3-.2.5-.5.5s-.5-.2-.5-.5v-3c0-.3-.2-.5-.5-.5s-.5.2-.5.5v3c0 .3-.2.5-.5.5s-.5-.2-.5-.5v-3.5h-.2c-.4 0-.8.4-.8.8v3.7c0 1 .6 1.9 1.5 2.3-.4 1.6-.5 3.7-.5 3.7v4c0 .8.7 1.5 1.5 1.5s1.5-.7 1.5-1.5v-4c0-.5-.1-2.3-.4-3.7.8-.4 1.4-1.3 1.4-2.3v-3.7c0-.4-.4-.8-.8-.8z"/></g></svg>