<svg height="100" viewBox="-8 -5 30 30" width="100" xmlns="http://www.w3.org/2000/svg">
<defs>
    <linearGradient id="Gradient1" x1="0" y1="0" x2="1" y2="1">
        <stop offset="20%" stop-color="#c4918a" />
        <stop offset="80%" stop-color="#6093c4" />
    </linearGradient>
</defs>
<path d="m16 12-1.4-6.7c-.2-.7-.9-1.3-1.7-1.3h-1.9v-1.2c0-1-.8-1.8-1.8-1.8h-2.4c-1 0-1.8.8-1.8 1.8v1.2h-1.9c-.8 0-1.5.6-1.7 1.3l-1.4 6.7c-.2 1 .6 2 1.7 2h12.5c1.2 0 2-1 1.8-2zm-10-9.2c0-.4.4-.8.8-.8h2.4c.4 0 .8.4.8.8v1.2h-4zm5 7.2h-2v2h-2v-2h-2v-2h2v-2h2v2h2z" fill="url(#Gradient1)"/></svg>