<svg height="100" viewBox="-8 -5 30 30" width="100" xmlns="http://www.w3.org/2000/svg"><g fill="white"><path d="m3.5 8 6.3-6.3c.4-.4 1-.7 1.7-.7s1.3.3 1.8.7c1 1 1 2.6 0 3.5l-2.8 2.8h1.4l2-2c1.4-1.4 1.4-3.6 0-4.9-.7-.7-1.6-1-2.5-1s-1.7.2-2.4.9l-6.3 6.4c-.3.2-.5.5-.7.9.5-.2 1-.3 1.5-.3z"/><path d="m7.3 5.6-2.4 2.4h4.7z"/><path d="m12.5 9h-9c-1.9 0-3.5 1.6-3.5 3.5s1.6 3.5 3.5 3.5h9c1.9 0 3.5-1.6 3.5-3.5s-1.6-3.5-3.5-3.5zm0 6h-4.5v-4h-4.5c-1.1 0-2 .6-2.5 1.2.2-1.2 1.2-2.2 2.5-2.2h9c1.4 0 2.5 1.1 2.5 2.5s-1.1 2.5-2.5 2.5z"/></g></svg>