<svg height="100" viewBox="-8 -5 30 30" width="100" xmlns="http://www.w3.org/2000/svg"><path d="m5.7 15.2c.3.3 1 .8 1.8.8 2.7 0 3.3-2 3.4-3.6.2-2.3.8-2.2 1.1-2.2.7 0 .9.4.9 1.1-.6.4-1 1-1 1.7 0 1.1.9 2 2 2s2-.9 2-2-.9-2-2-2c-.1 0-.1 0-.2 0-.2-.9-.7-1.8-1.8-1.8-1.6 0-2 1.4-2.1 2.9-.1 2.1-.8 2.9-2.3 2.9-.4 0-.8-.2-1-.4-.6-.5-.5-2.3-.5-2.3 2 0 4-1.8 4.7-4.8l-.2-.1c.3-1.2.5-2.6.5-3.6 0-1.1-.3-1.9-1-2.5s-1.5-.8-2.1-.8c-.2-.3-.5-.5-.9-.5-.5 0-1 .4-1 1s.4 1 1 1c.4 0 .7-.2.8-.5.5 0 1 .2 1.5.6s.7.9.7 1.7c0 .9-.2 2.2-.5 3.5l-.2-.1c-.3 1.1-1.3 3.6-3.3 3.6h-1c-2 0-3-2.5-3.3-3.6l-.2.1c-.3-1.3-.5-2.6-.5-3.5 0-.8.2-1.3.7-1.7.4-.4 1-.5 1.5-.6.1.3.4.5.8.5.6 0 1-.4 1-1s-.4-1-1-1c-.4 0-.7.2-.9.5-.6 0-1.4.2-2.1.8s-1 1.4-1 2.5c0 1 .2 2.4.5 3.7l-.2.1c.7 2.9 2.7 4.7 4.7 4.7 0 0-.1 2.2.7 2.9zm8.3-1.2c-.6 0-1-.4-1-1s.4-1 1-1 1 .4 1 1-.5 1-1 1z" fill="white"/></svg>